<?xml version="1.0" encoding="UTF-8"?>
<svg id="Capa_1" xmlns="http://www.w3.org/2000/svg" version="1.1" viewBox="0 0 1080 733.3">
  <!-- Generator: Adobe Illustrator 29.8.2, SVG Export Plug-In . SVG Version: 2.1.1 Build 3)  -->
  <defs>
    <style>
      .st0 {
        fill: #4494ad;
      }

      .st1 {
        fill: #fff;
      }

      .st2 {
        fill: #90caf0;
      }
    </style>
  </defs>
  <g>
    <path class="st1" d="M756.1,509.7c-195.6,181.8-464.7-121.6-266.7-295.2,193.7-169.8,457.9,117.6,266.7,295.2Z"/>
    <g>
      <path class="st2" d="M983,439.5c-2.3-12.1-14.9-7-25.9-11-56.5-20.4-60.1-103.7-4.3-126.7,8.5-3.5,27.6-4.3,29.8-10.5-4-39.2,11.7-110-11.2-142.4-24.2-34.3-67.7-21.7-104.4-23.2-171.8-6.9-344.7-2.1-516.9-3.5-20.6,3.8,5.1,56.3-20.1,53.9-18.6-1.8.5-48.8-13.9-53.4-51.9,4.3-119.2-8-169.2,1-78.5,14.2-42.1,117.5-50.2,173.1,91.7,2.9,90.6,132.6,0,134.3,8.3,56.8-29.2,162,52.9,173.7,50.9,7.3,114.3-3.2,166.5.4,14.4-4.7-4.7-51.7,13.9-53.4,25.2-2.4-.4,50.1,20.1,53.9h567.6c32.3.6,59.4-20.6,64.5-52.9,2.8-17.6,4-97.1.8-113.4ZM341.7,499.9c0,6.7-20.1,6.7-20.1,0v-55.4c0-1.5,16.7-2.8,20.1,0v55.4ZM341.7,389.1c0,6.7-20.1,6.7-20.1,0,0-11.2-2.3-42.6,0-50.4,2.4-8.1,20.1-5.5,20.1,0v50.4ZM341.7,283.3c0,2.1-20.1,2.1-20.1,0v-57.1c0-1.5,16.7-2.8,20.1,0v57.1ZM756.1,509.7c-195.6,181.8-464.7-121.6-266.7-295.2,193.7-169.8,457.9,117.6,266.7,295.2Z"/>
      <path class="st2" d="M509.6,227.9c-59.4,48.9-78.6,127.3-53.6,199.8,5.8,1.5,6.7-2.4,10.1-5,10.4-8.1,45-42.7,46.8-53.9,5.6-35.4,1.5-49.9,27-80.5,41.5-49.9,91.5-42.8,147.8-25.1,1.5,5.8-2.4,6.7-5,10.1-10.8,14-56.4,50.5-60.6,60.5-1.7,4,5,26,7.4,26.8,3.4,1.2,21.1,3.2,24.5,1.7,7.5-3.3,63.5-68.5,67.2-65.6,30.9,73.9,11.2,153.8-73,173.7-11.5,2.7-30.8,1.4-41,6-3.3,1.5-52.6,49-50.4,51.9,146.5,52.7,283.9-83,228.4-230-41.4-109.6-185.2-144.8-275.4-70.5Z"/>
    </g>
    <path class="st2" d="M643.9,273.3c6.2,5.3-44.4,48.5-45.7,53.5-1.5,5.8,7.2,47.6,9.3,50s47.5,13.4,49.9,12.3c8-3.5,32.8-35.4,43.5-43.7s4.3-6.5,10.1-5c13.8,54.6-23.7,99.6-76.4,109.9-8.9,1.7-17.8-.4-25.8,1-23.7,4.1-64.8,61.1-73.4,59.8-16.2-9-64.1-48.9-58.9-67.6,2.7-9.8,44.5-40.9,52.7-55,12.4-21.1,3.2-45.9,17.9-72.8,19.4-35.6,58.3-46.8,96.8-42.5Z"/>
  </g>
  <g>
    <path class="st1" d="M756.1,534.2c-195.6,181.8-464.7-121.6-266.7-295.2,193.7-169.8,457.9,117.6,266.7,295.2Z"/>
    <g>
      <path class="st0" d="M983,464c-2.3-12.1-14.9-7-25.9-11-56.5-20.4-60.1-103.7-4.3-126.7,8.5-3.5,27.6-4.3,29.8-10.5-4-39.2,11.7-110-11.2-142.4-24.2-34.3-67.7-21.7-104.4-23.2-171.8-6.9-344.7-2.1-516.9-3.5-20.6,3.8,5.1,56.3-20.1,53.9-18.6-1.8.5-48.8-13.9-53.4-51.9,4.3-119.2-8-169.2,1-78.5,14.2-42.1,117.5-50.2,173.1,91.7,2.9,90.6,132.6,0,134.3,8.3,56.8-29.2,162,52.9,173.7,50.9,7.3,114.3-3.2,166.5.4,14.4-4.7-4.7-51.7,13.9-53.4,25.2-2.4-.4,50.1,20.1,53.9h567.6c32.3.6,59.4-20.6,64.5-52.9,2.8-17.6,4-97.1.8-113.4ZM341.7,524.4c0,6.7-20.1,6.7-20.1,0v-55.4c0-1.5,16.7-2.8,20.1,0v55.4ZM341.7,413.6c0,6.7-20.1,6.7-20.1,0,0-11.2-2.3-42.6,0-50.4,2.4-8.1,20.1-5.5,20.1,0v50.4ZM341.7,307.8c0,2.1-20.1,2.1-20.1,0v-57.1c0-1.5,16.7-2.8,20.1,0v57.1ZM756.1,534.2c-195.6,181.8-464.7-121.6-266.7-295.2,193.7-169.8,457.9,117.6,266.7,295.2Z"/>
      <path class="st0" d="M509.6,252.4c-59.4,48.9-78.6,127.3-53.6,199.8,5.8,1.5,6.7-2.4,10.1-5,10.4-8.1,45-42.7,46.8-53.9,5.6-35.4,1.5-49.9,27-80.5,41.5-49.9,91.5-42.8,147.8-25.1,1.5,5.8-2.4,6.7-5,10.1-10.8,14-56.4,50.5-60.6,60.5-1.7,4,5,26,7.4,26.8,3.4,1.2,21.1,3.2,24.5,1.7,7.5-3.3,63.5-68.5,67.2-65.6,30.9,73.9,11.2,153.8-73,173.7-11.5,2.7-30.8,1.4-41,6-3.3,1.5-52.6,49-50.4,51.9,146.5,52.7,283.9-83,228.4-230-41.4-109.6-185.2-144.8-275.4-70.5Z"/>
    </g>
    <path class="st0" d="M643.9,297.8c6.2,5.3-44.4,48.5-45.7,53.5-1.5,5.8,7.2,47.6,9.3,50s47.5,13.4,49.9,12.3c8-3.5,32.8-35.4,43.5-43.7s4.3-6.5,10.1-5c13.8,54.6-23.7,99.6-76.4,109.9-8.9,1.7-17.8-.4-25.8,1-23.7,4.1-64.8,61.1-73.4,59.8-16.2-9-64.1-48.9-58.9-67.6,2.7-9.8,44.5-40.9,52.7-55,12.4-21.1,3.2-45.9,17.9-72.8,19.4-35.6,58.3-46.8,96.8-42.5Z"/>
  </g>
  <g>
    <path class="st1" d="M756.1,523c-195.6,181.8-464.7-121.6-266.7-295.2,193.7-169.8,457.9,117.6,266.7,295.2Z"/>
    <g>
      <path class="st0" d="M983,452.8c-2.3-12.1-14.9-7-25.9-11-56.5-20.4-60.1-103.7-4.3-126.7,8.5-3.5,27.6-4.3,29.8-10.5-4-39.2,11.7-110-11.2-142.4-24.2-34.3-67.7-21.7-104.4-23.2-171.8-6.9-344.7-2.1-516.9-3.5-20.6,3.8,5.1,56.3-20.1,53.9-18.6-1.8.5-48.8-13.9-53.4-51.9,4.3-119.2-8-169.2,1-78.5,14.2-42.1,117.5-50.2,173.1,91.7,2.9,90.6,132.6,0,134.3,8.3,56.8-29.2,162,52.9,173.7,50.9,7.3,114.3-3.2,166.5.4,14.4-4.7-4.7-51.7,13.9-53.4,25.2-2.4-.4,50.1,20.1,53.9h567.6c32.3.6,59.4-20.6,64.5-52.9,2.8-17.6,4-97.1.8-113.4ZM341.7,513.2c0,6.7-20.1,6.7-20.1,0v-55.4c0-1.5,16.7-2.8,20.1,0v55.4ZM341.7,402.4c0,6.7-20.1,6.7-20.1,0,0-11.2-2.3-42.6,0-50.4,2.4-8.1,20.1-5.5,20.1,0v50.4ZM341.7,296.6c0,2.1-20.1,2.1-20.1,0v-57.1c0-1.5,16.7-2.8,20.1,0v57.1ZM756.1,523c-195.6,181.8-464.7-121.6-266.7-295.2,193.7-169.8,457.9,117.6,266.7,295.2Z"/>
      <path class="st0" d="M509.6,241.2c-59.4,48.9-78.6,127.3-53.6,199.8,5.8,1.5,6.7-2.4,10.1-5,10.4-8.1,45-42.7,46.8-53.9,5.6-35.4,1.5-49.9,27-80.5,41.5-49.9,91.5-42.8,147.8-25.1,1.5,5.8-2.4,6.7-5,10.1-10.8,14-56.4,50.5-60.6,60.5-1.7,4,5,26,7.4,26.8,3.4,1.2,21.1,3.2,24.5,1.7,7.5-3.3,63.5-68.5,67.2-65.6,30.9,73.9,11.2,153.8-73,173.7-11.5,2.7-30.8,1.4-41,6-3.3,1.5-52.6,49-50.4,51.9,146.5,52.7,283.9-83,228.4-230-41.4-109.6-185.2-144.8-275.4-70.5Z"/>
    </g>
    <path class="st0" d="M643.9,286.6c6.2,5.3-44.4,48.5-45.7,53.5-1.5,5.8,7.2,47.6,9.3,50s47.5,13.4,49.9,12.3c8-3.5,32.8-35.4,43.5-43.7s4.3-6.5,10.1-5c13.8,54.6-23.7,99.6-76.4,109.9-8.9,1.7-17.8-.4-25.8,1-23.7,4.1-64.8,61.1-73.4,59.8-16.2-9-64.1-48.9-58.9-67.6,2.7-9.8,44.5-40.9,52.7-55,12.4-21.1,3.2-45.9,17.9-72.8,19.4-35.6,58.3-46.8,96.8-42.5Z"/>
  </g>
</svg>